PathFileType	4	(X/Y/Z)	32_2_30_p1_0-394_filt_butterworth.trc
DataRate	CameraRate	NumFrames	NumMarkers	Units	OrigDataRate	OrigDataStartFrame	OrigNumFrames
59.0	59.0	7	27	m	59.0	246	394
Frame#	Time	RHip			RKnee			RAnkle			RBigToe			RSmallToe			RHeel			LHip			LKnee			LAnkle			LBigToe			LSmallToe			LHeel			Neck			Head			Nose			RShoulder			RElbow			RWrist			RThumb			RIndex			RPinky			LShoulder			LElbow			LWrist			LThumb			LIndex			LPinky			
		X1	Y1	Z1	X2	Y2	Z2	X3	Y3	Z3	X4	Y4	Z4	X5	Y5	Z5	X6	Y6	Z6	X7	Y7	Z7	X8	Y8	Z8	X9	Y9	Z9	X10	Y10	Z10	X11	Y11	Z11	X12	Y12	Z12	X13	Y13	Z13	X14	Y14	Z14	X15	Y15	Z15	X16	Y16	Z16	X17	Y17	Z17	X18	Y18	Z18	X19	Y19	Z19	X20	Y20	Z20	X21	Y21	Z21	X22	Y22	Z22	X23	Y23	Z23	X24	Y24	Z24	X25	Y25	Z25	X26	Y26	Z26	X27	Y27	Z27	
246	4.169491525423729	0.2988859118580604	0.9564068171043433	0.3914658578776504	0.30413391538195333	0.544844904786985	0.4035638645894521	0.31052650629606987	0.13609714503422016	0.4687283224652839	0.3183078482177679	0.1184513748157818	0.327534768392342	0.37430561973224463	0.11847373192945673	0.33922650579366387	0.29610991201194437	0.03930572062630284	0.5656151901949422	0.12829773983780682	0.9652096834684055	0.3355003039921026	0.1533201974859102	0.5260492967176412	0.4417321001683428	0.13630491691803232	0.09977011825345981	0.5045559423445006	0.15386317720850506	0.13097926586638836	0.29758544745261417	0.10858625565525643	0.1142949704279658	0.34079348371754925	0.14864732583509466	0.05010475583793758	0.5433665075182299	0.24461031804725297	1.4749712143074747	0.31546354237950414	0.30977768768257846	1.712145231397553	0.23983560377254015	0.27688173881047695	1.5663641815566323	0.19437825663523295	0.3652914242256383	1.4165639326878021	0.3930334767640756	0.408992591803463	1.2228254904985139	0.5149146875953661	0.45486303231238234	1.188100078635527	0.3380771852923922	0.4351104401674906	1.2019527622906723	0.21326433654268095	0.44928157842824656	1.1914438215606777	0.22847081038820066	0.44270009588992276	1.130598848091263	0.2602672828313436	0.10795222006308663	1.4357781088712394	0.2633842976080539	0.07120736622856601	1.2079624824190738	0.1754640409766793	0.24272126191463333	1.1187329076004855	0.10088044691174844	0.3436025185877544	1.1330220071266774	0.09731503536749901	0.3535155125920009	1.1100139824839654	0.09072397368863033	0.326895347340982	1.0550970661555272	0.0928868372577021	
247	4.186440677966102	0.3002494477856479	0.9542857859849764	0.3914342214812353	0.3044726122209733	0.5455020490953527	0.40227731878287	0.31093909078491916	0.13693920077574445	0.4673107796443159	0.31798705190440835	0.1194663137147432	0.3276560208953727	0.3742941313225667	0.11849492413087713	0.33919858410397347	0.2961261610524709	0.03934734961768978	0.565622678402675	0.12765502530502285	0.9644787873485338	0.3343795508390611	0.15344491626563175	0.5261047903856674	0.4423760665003829	0.13630287531970378	0.09978383930553034	0.5045434932060452	0.153307478758193	0.1324778019263964	0.2982867175969418	0.10801720520298635	0.11270400301562654	0.3433447428263322	0.14850223760898476	0.050448449003069405	0.5437170947289256	0.24454026749612515	1.4764523228151476	0.31547950867618907	0.3068651295006041	1.711833565026773	0.24095020021731395	0.27593558372856447	1.5676193474112463	0.19232282803432488	0.36546549450619353	1.4175139583759	0.39184425579305027	0.41636148783962534	1.2269377476537664	0.5095829176647706	0.45437969994199945	1.186816320707278	0.3367602024159194	0.42719840029494965	1.1976937828696879	0.20990954621670432	0.4423585358643016	1.1819424488060057	0.23611200334976648	0.4393864534959624	1.1245737841391235	0.26484232786838735	0.1080020044231034	1.435940565021212	0.2632783604286342	0.0722742927502238	1.2092695569899548	0.17494111304773566	0.24401266831638557	1.125938557794063	0.10335549741992756	0.3424111820445411	1.1406263647886359	0.09766736995825642	0.35315336629251476	1.1190270401440237	0.09000806687054028	0.32616228247627366	1.063195873647487	0.09410246858515345	
248	4.203389830508475	0.3015499250223715	0.952457249067909	0.3913450759825497	0.30480751039635035	0.5462569476292982	0.4009208683288622	0.3113493344988138	0.13776349155851952	0.4659147312114036	0.3179978039693174	0.11966041034988192	0.3281395276833099	0.37430247013119167	0.11850270857701191	0.3392018641773948	0.2961564014525597	0.03914110363837543	0.565822651232709	0.1271883509986079	0.9638015557550814	0.33321938991171063	0.15335170413936805	0.5263552355610369	0.4427505610940428	0.13630325361965437	0.09979082335740469	0.5045320975812321	0.1529720362058119	0.13365311403788807	0.29893618476649086	0.1075670707709174	0.11192859976384434	0.3445942443649124	0.1484380828028532	0.05094611858585964	0.5438229504132182	0.24450471142295394	1.4776264385583195	0.31563112973309837	0.304035360212864	1.7119308815986463	0.24090147709516405	0.27519591072423705	1.5686303053458956	0.19047558867701192	0.36520409928669084	1.418999361731259	0.39067391056600065	0.4217713254328916	1.230089776859082	0.5045057377660603	0.4539543678927013	1.1856016866107486	0.3349811577854757	0.4206343620232095	1.193979953099362	0.20650002946955506	0.4371238478486533	1.1722617498377075	0.2425276166578243	0.43712878851906023	1.1193944078670504	0.26900226560149443	0.1080536226977204	1.4362389021463597	0.26315777532886964	0.07356848973401664	1.2102486761530475	0.17431003468049894	0.2449914174385474	1.1331024028161065	0.10531612378723276	0.34166607996219567	1.147893593532495	0.09847042569814465	0.3530548101383536	1.1275722898447849	0.08915702198563963	0.3254859669209545	1.0721853149361553	0.09410720650277754	
249	4.220338983050848	0.30279383006048627	0.9508624965969944	0.3912110299276142	0.3051400995954712	0.5470376768373206	0.3995373807065744	0.31174398854814345	0.1385354513518826	0.464575804053353	0.3183253222851313	0.11871437961467525	0.32925027508874316	0.37433105009677303	0.118490866614863	0.3392458877819362	0.2961639178088324	0.038589059948609665	0.5662041784870284	0.12693298705208655	0.9631732931446162	0.33215717061314387	0.15311064484942222	0.5267349134116224	0.44271759455027315	0.13630436690387768	0.09979342177874641	0.5045200351038734	0.15294707284494963	0.13421053875987526	0.2993900605664564	0.10729198826339575	0.11186334230203193	0.34472807461990834	0.1484808786987031	0.051583030068154456	0.5436041053189297	0.24445919938980903	1.4782254587911996	0.31574842436505773	0.3012685508780074	1.7123764449349763	0.2396008331289317	0.27455765079968286	1.5693435120124353	0.18914313604655725	0.3645558897764146	1.4209939811194923	0.38922162503302726	0.4255898629392576	1.2323249441468265	0.5006606827784919	0.45385809069456806	1.1842647055558357	0.3338173366425272	0.4154307343125314	1.191167424658306	0.20346346239714608	0.4336774354433308	1.1635961755377062	0.24701721176007604	0.43563997871662613	1.115552276026355	0.27273296914395045	0.10809227434150212	1.4366453465240347	0.2630472971166235	0.07467548196556559	1.2107584731886976	0.1738339796131903	0.2455058450051843	1.1398854295245844	0.10653301032275249	0.34140856481849907	1.1551123987326164	0.09935425196427844	0.3534711901331564	1.1357167204345715	0.08795439954719615	0.325134644726474	1.0820580546344654	0.0928046731144403	
250	4.237288135593221	0.30398695841274864	0.949536101805838	0.391070121837618	0.3054727092094031	0.5477718220213197	0.3981701035908409	0.3121074148094065	0.1392100556451893	0.4633247646186978	0.31888774984159335	0.1170072910654216	0.33045990218099547	0.3743725176122844	0.11846105584929553	0.3393142613703478	0.29611083366951146	0.037839543451797915	0.5665795016477311	0.12685689044555787	0.962677096457568	0.3312086195786605	0.15273607779119955	0.52712289181909	0.44230068664828426	0.13630290811720952	0.09979902984270994	0.504503643545478	0.15321699013377368	0.13415133184176045	0.2995691610050359	0.10717901674497285	0.11214790843074299	0.3443246762535222	0.14862325720402897	0.05233458755601749	0.5430606397512794	0.24430921274207237	1.4782247794330534	0.3154813909841553	0.29855473607833927	1.7130019156475742	0.23739050899716774	0.2739465763610149	1.5698179555316807	0.18839156141998348	0.3637051834049083	1.4232269168341052	0.3872624616209744	0.42861119826607075	1.2338475242040465	0.4975902974752078	0.4541414179035454	1.1825896782840082	0.33424889668686203	0.41152423197695653	1.189162710878724	0.2014972946282077	0.4316256561229478	1.1568489027761217	0.2493942017161309	0.4347123393198801	1.1131200983306644	0.27586860924277856	0.1081085135616334	1.4369806351922534	0.26295517361898935	0.07531369606647682	1.210869109051418	0.1739396735975649	0.2455461465184119	1.1460296211097956	0.10706640110828286	0.3415968508248244	1.162710572186593	0.10008322850356206	0.35439726800995636	1.1435395136275528	0.08630457774005951	0.3251203098071681	1.0924364248209577	0.09023581288028351	
251	4.254237288135593	0.30511666596778314	0.9486162698155931	0.3909652226058413	0.30580118978141085	0.5484287976128391	0.39685297541026787	0.31243194843211575	0.13977492564945945	0.4621855621874722	0.31947573009406083	0.1154957526413248	0.33112536450580426	0.37441275841359456	0.11842430343178947	0.3393792537764888	0.29602240585309575	0.03716153955713844	0.5667158636610804	0.1268931875632529	0.9624526067050133	0.3303045210089228	0.15224522519551736	0.5274773320591573	0.4416673236645849	0.13629729573567065	0.09981383407193173	0.5044816841192621	0.1536584930952096	0.13377488862962753	0.29934847731797576	0.10714845391176338	0.11243879371784188	0.34391921098249606	0.14884891257901792	0.05316844516137635	0.5422264794193483	0.2439860911045636	1.4777853799648364	0.3145672046332777	0.29585718409577616	1.7135875417884179	0.23475216628166046	0.2734497763185678	1.5702434191174728	0.1881338779661587	0.362875559302961	1.4252502871776849	0.38460635319544545	0.43150989111330557	1.2345898115935559	0.49443863608413335	0.45463772435866967	1.1803749069580034	0.3369512908696569	0.40875620492794484	1.1874611285158048	0.2013454237511307	0.43046463237682503	1.1524044328123135	0.2504393902261217	0.43422524316140526	1.1118924419257887	0.2784545766156783	0.10809811226694488	1.4370016557293215	0.2628619006663803	0.0754292046800761	1.2108376650181363	0.1748915155444103	0.24525990434783396	1.1513547828869966	0.10718321226325248	0.34222323801782717	1.1708265279026628	0.10056548556416345	0.35554091148538536	1.1510700498503565	0.08436876733189341	0.32539277270785105	1.1023414691349998	0.08688073059390501	
252	4.271186440677966	0.3061582587948438	0.9482282674057789	0.3909106123286206	0.3061145391589523	0.5490095172610845	0.3956128093179074	0.31272099023423394	0.14026669240505152	0.46117443722714396	0.31985760814577524	0.11503162457107154	0.3312230514693869	0.37443803642847384	0.11839496847842773	0.33942032305194764	0.29597202498359626	0.036726435093214896	0.5664755669724103	0.12698451358681787	0.9626279095747678	0.3293895903956483	0.15172978477941343	0.5278421825915799	0.44102021078644527	0.13629589356843896	0.09982952736855542	0.5044607481719235	0.15410644443240365	0.13351341784904083	0.29862471155926873	0.1071389354093503	0.11259718575060651	0.3437213904776652	0.14914843925307258	0.05405302289951147	0.5411593936323699	0.24349564828115491	1.4771079586014153	0.31301493462310226	0.29298887566070797	1.7139545513162966	0.2319300376122539	0.27319378369873626	1.5708493799872656	0.18819834618155584	0.36221817583815363	1.426698773199988	0.3814034122670298	0.4344408183854452	1.2344279218674818	0.49107205888210587	0.4551741195505432	1.1776111726317386	0.34217191930304236	0.4068319600227238	1.1857076026918927	0.20341726581942582	0.4298590604361969	1.150295268521807	0.251332699761675	0.43405353555646714	1.1115364454692123	0.28087353817526894	0.1080629473102926	1.4365674139516311	0.26273715892601335	0.0751057058659632	1.210953577661316	0.17664817755655954	0.24488169514042418	1.1558711073438768	0.10714573115045534	0.3432519863170105	1.1790594971338864	0.10075521626286145	0.3565549058209636	1.1580722575624642	0.08252001430908426	0.3258823220089034	1.110790139529803	0.08353550709669152	
